# AST/ASF file generated using VICON BodyLanguage
# -----------------------------------------------
:version 1.10
:name VICON
:units
  mass 1.0
  length 0.45
  angle deg
:documentation
   .ast/.asf automatically generated from VICON data using
   VICON BodyBuilder and BodyLanguage model FoxedUp or BRILLIANT.MOD
:root
   order TX TY TZ RX RY RZ
   axis XYZ
   position 0 0 0  
   orientation 0 0 0 
:bonedata
  begin
     id 1 
     name lhipjoint
     direction 0.567149 -0.783011 0.255413 
     length 2.28399 
     axis 0 0 0  XYZ
  end
  begin
     id 2 
     name lfemur
     direction 0.34202 -0.939693 0  
     length 7.34031  
     axis 0 0 20  XYZ
    dof rx ry rz
    limits (-160.0 20.0)
           (-70.0 70.0)
           (-60.0 70.0)
  end
  begin
     id 3 
     name ltibia
     direction 0.34202 -0.939693 0   
     length 6.9833   
     axis 0 0 20   XYZ
    dof rx
    limits (-10.0 170.0)
  end
  begin
     id 4 
     name lfoot
     direction 0.136498 -0.375025 0.91691   
     length 2.33665   
     axis -90 7.62852e-016 20   XYZ
    dof rx rz
    limits (-45.0 90.0)
           (-70.0 20.0)
  end
  begin
     id 5 
     name ltoes
     direction 1.5367e-011 -4.21617e-011 1   
     length 1.15039   
     axis -90 7.62852e-016 20   XYZ
    dof rx
    limits (-90.0 20.0)
  end
  begin
     id 6 
     name rhipjoint
     direction -0.602854 -0.758518 0.247423   
     length 2.35775  
     axis 0 0 0  XYZ 
  end
  begin
     id 7 
     name rfemur
     direction -0.34202 -0.939693 0   
     length 7.43932   
     axis 0 0 -20   XYZ
    dof rx ry rz
    limits (-160.0 20.0)
           (-70.0 70.0)
           (-70.0 60.0)
  end
  begin
     id 8 
     name rtibia
     direction -0.34202 -0.939693 0   
     length 7.11893   
     axis 0 0 -20   XYZ
    dof rx
    limits (-10.0 170.0)
 end
 begin
     id 9 
     name rfoot
     direction -0.131771 -0.362037 0.922803   
     length 2.53019  
     axis -90 -7.62852e-016 -20   XYZ
    dof rx rz
    limits (-45.0 90.0)
           (-20.0 70.0)
  end
  begin
     id 10 
     name rtoes
     direction -1.53733e-011 -4.21932e-011 1   
     length 1.24596   
     axis -90 -7.62852e-016 -20   XYZ
    dof rx
    limits (-90.0 20.0)
  end
  begin
     id 11 
     name lowerback
     direction 0.0235427 0.999023 -0.0374125   
     length 2.21768   
     axis 0 0 0   XYZ
    dof rx ry rz
    limits (-20.0 45.0)
           (-30.0 30.0)
           (-30.0 30.0)
  end
  begin
     id 12 
     name upperback
     direction 0.0302156 0.996818 -0.073759   
     length 2.20352   
     axis 0 0 0   XYZ
    dof rx ry rz
    limits (-20.0 45.0)
           (-30.0 30.0)
           (-30.0 30.0)
  end
  begin
     id 13 
     name thorax
     direction 0.0187169 0.998235 -0.0563532   
     length 2.22103   
     axis 0 0 0   XYZ
    dof rx ry rz
    limits (-20.0 45.0)
           (-30.0 30.0)
           (-30.0 30.0)
  end
  begin
     id 14 
     name lowerneck
     direction -0.119528 0.987423 0.103481   
     length 1.72948   
     axis 0 0 0   XYZ
    dof rx ry rz
    limits (-20.0 45.0)
           (-30.0 30.0)
           (-30.0 30.0)
  end
  begin
     id 15 
     name upperneck
     direction 0.248049 0.963095 -0.104496   
     length 1.74979   
     axis 0 0 0   XYZ
    dof rx ry rz
    limits (-20.0 45.0)
           (-30.0 30.0)
           (-30.0 30.0)
  end
  begin
     id 16
     name head
     direction 0.0903589 0.994284 -0.056876  
     length 1.78268  
     axis 0 0 0   XYZ
    dof rx ry rz
    limits (-20.0 45.0)
           (-30.0 30.0)
           (-30.0 30.0)
  end
  begin
     id 17 
     name lclavicle
     direction 0.946008 0.242039 -0.215608  
     length 3.80783  
     axis 0 0 0   XYZ
    dof ry rz
    limits (-20.0 10.0)
           (0.0 20.0)
  end
  begin
     id 18 
     name lhumerus
     direction 1 -4.48991e-011 -2.25695e-027   
     length 4.83125   
     axis 180 -30 -90   XYZ
    dof rx ry rz
    limits (-60.0 90.0)
           (-90.0 90.0)
           (-90.0 90.0)
  end
  begin
     id 19
     name lradius
     direction 0.999991 0.00366712 -0.00211721   
     length 3.00391   
     axis 180 -30 -90   XYZ
    dof rx
    limits (-10.0 170.0)
  end
  begin
     id 20
     name lwrist
     direction 0.999991 0.00393016 -0.00141978   
     length 1.50195   
     axis -1.00488e-014 90 90   XYZ
    dof ry
    limits (-180.0 0.0)
 end
  begin
     id 21 
     name lhand
     direction 1 -4.49123e-011 2.72098e-026   
     length 1.2717   
     axis -1.73687e-014 90 90   XYZ
    dof rx rz
    limits (-90.0 90.0)
           (-45.0 45.0)
  end
  begin
     id 22 
     name lfingers
     direction 1 -4.48678e-011 5.4479e-026   
     length 1.02528   
     axis -3.47372e-014 90 90   XYZ
    dof rx
    limits (0.0 90.0)
  end
  begin
     id 23
     name lthumb
     direction 0.707107 -6.34851e-011 0.707107   
     length 1.4721   
     axis -90 45 -1.62303e-014   XYZ
    dof rx rz
    limits (-45.0 45.0)
           (-45.0 45.0)
  end
  begin
     id 24 
     name rclavicle
     direction -0.981723 0.189447 -0.0181673   
     length 3.74989  
     axis 0 0 0   XYZ 
    dof ry rz
    limits (-10.0 20.0)
           (-20.0 0.0)
  end
  begin
     id 25 
     name rhumerus
     direction -1 -4.48985e-011 2.38206e-027  
     length 4.61118   
     axis 180 30 90   XYZ
    dof rx ry rz
    limits (-90.0 60.0)
           (-90.0 90.0)
           (-90.0 90.0)
  end
  begin
     id 26 
     name rradius
     direction -1 -4.48977e-011 7.41019e-027   
     length 2.91491   
     axis 180 30 90   XYZ
    dof rx
    limits (-10.0 170.0)
  end
  begin
     id 27 
     name rwrist
     direction -1 -4.48549e-011 1.3624e-026   
     length 1.45745   
     axis -1.00488e-014 -90 -90   XYZ
    dof ry
    limits (-180.0 0.0)
  end
  begin
     id 28
     name rhand
     direction -1 -4.49107e-011 2.72109e-026   
     length 1.30769   
     axis -1.73687e-014 -90 -90   XYZ
    dof rx rz
    limits (-90.0 90.0)
           (-45.0 45.0)
  end
  begin
     id 29
     name rfingers
     direction -1 -4.48919e-011 5.44468e-026   
     length 1.05429   
     axis -3.47372e-014 -90 -90   XYZ
    dof rx
    limits (0.0 90.0)
  end
  begin
     id 30
     name rthumb
     direction -0.707107 -6.35315e-011 0.707107   
     length 1.51376   
     axis -90 -45 1.62303e-014   XYZ
    dof rx rz
    limits (-45.0 45.0)
           (-45.0 45.0)
  end
:hierarchy
  begin
    root lhipjoint rhipjoint lowerback
    lhipjoint lfemur
    lfemur ltibia
    ltibia lfoot
    lfoot ltoes
    rhipjoint rfemur
    rfemur rtibia
    rtibia rfoot
    rfoot rtoes
    lowerback upperback
    upperback thorax
    thorax lowerneck lclavicle rclavicle
    lowerneck upperneck
    upperneck head
    lclavicle lhumerus
    lhumerus lradius
    lradius lwrist
    lwrist lhand lthumb
    lhand lfingers
    rclavicle rhumerus
    rhumerus rradius
    rradius rwrist
    rwrist rhand rthumb
    rhand rfingers
  end

#!OML:ASF X:\für Bonn\!DataBase\2005_08_11_Bastian_Final\c3d\Bastian.ASF
:FULLY-SPECIFIED
:DEGREES
16
root -3.38593 16.9522 5.03495 173.786 11.3572 -171.194
lowerback 5.32697 -6.13228 6.10639
upperback 4.96713 -7.26749 5.58479
thorax 2.14533 -3.21734 2.66705
lowerneck -7.4118 0.837591 3.73237
upperneck -7.96999 1.25684 -2.7072
head -1.20576 0.759284 -1.46254
rclavicle -1.82882e-014 7.31528e-014
rhumerus -49.3251 -1.85348 -75.4447
rradius 57.9617
rwrist -271.26
rhand -1.06989 -17.421
rfingers 7.12502
rthumb 24.5652 -405.865
lclavicle -1.82882e-014 7.31528e-014
lhumerus 330.84 -21.2978 -264.182
lradius 69.244
lwrist -143.115
lhand -29.6326 16.8257
lfingers 7.12502
lthumb -2.96267 46.7848
rfemur -13.6819 -17.6089 35.8448
rtibia 43.8883
rfoot -22.8465 -14.4128
rtoes 12.8573
lfemur 20.6189 8.0867 -11.9009
ltibia 25.4138
lfoot -22.4198 0.447304
ltoes -25.6163
17
root -3.38692 16.9268 5.12331 173.815 10.9286 -171.177
lowerback 5.61336 -6.2485 5.80012
upperback 5.00846 -7.40361 5.56913
thorax 2.06673 -3.29481 2.84884
lowerneck -7.68743 0.791124 3.70231
upperneck -8.09216 1.21948 -2.46532
head -1.20176 0.74698 -1.37922
rclavicle 4.72114e-014 -4.92986e-014
rhumerus -49.5302 -1.78979 -75.7264
rradius 59.2464
rwrist -270.763
rhand -1.07016 -17.9222
rfingers 7.12502
rthumb 24.565 -406.366
lclavicle 4.72114e-014 -4.92986e-014
lhumerus 331.091 -21.3853 -264.394
lradius 69.8015
lwrist -143
lhand -29.5075 16.8609
lfingers 7.12502
lthumb -2.84184 46.8217
rfemur -14.4438 -17.7963 36.0134
rtibia 44.4376
rfoot -22.6679 -14.5826
rtoes 12.9586
lfemur 20.636 7.26368 -12.3097
ltibia 24.6767
lfoot -23.1835 1.15854
ltoes -24.6088
18
root -3.38886 16.9014 5.21487 173.813 10.5341 -171.186
lowerback 5.94184 -6.34034 5.49496
upperback 5.05109 -7.50632 5.52732
thorax 1.96365 -3.35614 3.0067
lowerneck -7.91198 0.730498 3.71653
upperneck -8.2192 1.15973 -2.25114
head -1.20824 0.722266 -1.31353
rclavicle -5.76476e-014 3.26007e-014
rhumerus -49.725 -1.75566 -76.0199
rradius 60.5171
rwrist -270.194
rhand -1.07679 -18.395
rfingers 7.12502
rthumb 24.5586 -406.84
lclavicle -5.76476e-014 3.26007e-014
lhumerus 331.314 -21.443 -264.618
lradius 70.4095
lwrist -142.892
lhand -29.415 16.7032
lfingers 7.12502
lthumb -2.75247 46.6651
rfemur -15.1947 -18.0324 36.1356
rtibia 45.021
rfoot -22.3458 -14.6594
rtoes 13.0558
lfemur 20.5821 6.4726 -12.7154
ltibia 24.1038
lfoot -23.9183 1.7281
ltoes -23.7101
19
root -3.39086 16.8813 5.30714 173.822 10.1851 -171.214
lowerback 6.24692 -6.40564 5.21954
upperback 5.1053 -7.57859 5.46337
thorax 1.87941 -3.40087 3.12187
lowerneck -8.11526 0.650813 3.68096
upperneck -8.36251 1.08204 -1.99171
head -1.22415 0.690145 -1.22558
rclavicle -3.80673e-014 -6.36111e-015
rhumerus -49.8658 -1.75213 -76.3324
rradius 61.774
rwrist -269.558
rhand -1.06127 -18.8807
rfingers 7.12502
rthumb 24.5735 -407.324
lclavicle -3.80673e-014 -6.36111e-015
lhumerus 331.57 -21.4745 -264.879
lradius 71.0572
lwrist -142.787
lhand -29.3583 16.3636
lfingers 7.12502
lthumb -2.69777 46.3263
rfemur -15.9808 -18.3175 36.2246
rtibia 45.642
rfoot -21.8751 -14.6463
rtoes 13.0241
lfemur 20.4421 5.75952 -13.0842
ltibia 23.668
lfoot -24.596 2.11808
ltoes -22.4924
20
root -3.39371 16.8643 5.40125 173.793 9.86611 -171.304
lowerback 6.5989 -6.44259 4.89158
upperback 5.16754 -7.61343 5.39286
thorax 1.78356 -3.42833 3.26169
lowerneck -8.31728 0.538999 3.60095
upperneck -8.5095 0.967039 -1.7116
head -1.24242 0.640925 -1.12438
rclavicle -3.16068e-014 7.95139e-016
rhumerus -49.9876 -1.73583 -76.6366
rradius 63.0511
rwrist -268.921
rhand -1.07462 -19.3619
rfingers 7.12502
rthumb 24.5607 -407.807
lclavicle -3.16068e-014 7.95139e-016
lhumerus 331.865 -21.5121 -265.14
lradius 71.7418
lwrist -142.671
lhand -29.3189 15.8891
lfingers 7.12502
lthumb -2.65974 45.8523
rfemur -16.7712 -18.5646 36.2017
rtibia 46.3114
rfoot -21.4005 -14.4784
rtoes 13.5067
lfemur 20.2562 5.09206 -13.4903
ltibia 23.3654
lfoot -25.2428 2.46152
ltoes -21.2333
21
root -3.39608 16.8496 5.49529 173.742 9.59871 -171.417
lowerback 6.97151 -6.44515 4.57521
upperback 5.231 -7.60351 5.30109
thorax 1.67253 -3.43309 3.37343
lowerneck -8.46622 0.413134 3.48437
upperneck -8.68328 0.840843 -1.39604
head -1.27787 0.587158 -1.00687
rclavicle -2.28602e-014 -1.11319e-014
rhumerus -50.1023 -1.77318 -76.927
rradius 64.3337
rwrist -268.201
rhand -1.14533 -19.8055
rfingers 7.12502
rthumb 24.4929 -408.259
lclavicle -2.28602e-014 -1.11319e-014
lhumerus 332.163 -21.5421 -265.422
lradius 72.4773
lwrist -142.68
lhand -29.2698 15.3564
lfingers 7.12502
lthumb -2.6123 45.3202
rfemur -17.5603 -18.8391 36.1407
rtibia 47.0263
rfoot -20.8419 -14.2169
rtoes 13.8849
lfemur 20.0378 4.51553 -13.8584
ltibia 23.1706
lfoot -25.8367 2.67905
ltoes -19.5743
22
root -3.39945 16.8361 5.59 173.683 9.35906 -171.526
lowerback 7.34302 -6.44207 4.27012
upperback 5.31232 -7.58538 5.21994
thorax 1.58099 -3.43135 3.48883
lowerneck -8.63303 0.267365 3.31783
upperneck -8.83986 0.692684 -1.0654
head -1.3049 0.523899 -0.876715
rclavicle -2.56432e-014 -2.38542e-015
rhumerus -50.1554 -1.80591 -77.2019
rradius 65.6284
rwrist -267.341
rhand -1.26377 -20.1937
rfingers 7.12502
rthumb 24.3794 -408.663
lclavicle -2.56432e-014 -2.38542e-015
lhumerus 332.507 -21.5356 -265.731
lradius 73.2669
lwrist -142.713
lhand -29.228 14.7642
lfingers 7.12502
lthumb -2.57192 44.7284
rfemur -18.3624 -19.1132 36.0684
rtibia 47.7732
rfoot -20.225 -13.8999
rtoes 14.2084
lfemur 19.7829 4.27335 -14.0239
ltibia 23.0522
lfoot -26.3404 2.5588
ltoes -18.0741
23
root -3.40798 16.8234 5.6884 173.631 9.31385 -171.592
lowerback 7.78431 -6.37624 4.07356
upperback 5.39021 -7.4694 5.14108
thorax 1.43062 -3.37603 3.54976
lowerneck -8.75691 0.11162 3.1698
upperneck -9.0207 0.531289 -0.764193
head -1.34616 0.453801 -0.760158
rclavicle 1.5376e-013 7.15625e-015
rhumerus -50.1989 -1.79897 -77.489
rradius 66.958
rwrist -266.419
rhand -1.38882 -20.621
rfingers 7.12502
rthumb 24.2595 -409.106
lclavicle 1.5376e-013 7.15625e-015
lhumerus 332.906 -21.5091 -266.054
lradius 74.1222
lwrist -142.819
lhand -29.1502 14.1259
lfingers 7.12502
lthumb -2.49673 44.091
rfemur -19.1651 -19.2973 36.0399
rtibia 48.5301
rfoot -19.5022 -13.5076
rtoes 14.6905
lfemur 19.5053 4.34954 -14.0445
ltibia 23.0034
lfoot -26.7513 2.33155
ltoes -16.7604
24
root -3.42205 16.8101 5.7899 173.556 9.45481 -171.638
lowerback 8.30415 -6.26014 3.94554
upperback 5.4861 -7.27253 5.06734
thorax 1.24523 -3.27556 3.5798
lowerneck -8.87963 -0.0466618 2.95755
upperneck -9.2099 0.376037 -0.421785
head -1.38934 0.38899 -0.620329
rclavicle 6.9674e-014 2.62396e-014
rhumerus -50.1682 -1.72713 -77.7783
rradius 68.2856
rwrist -265.421
rhand -1.59682 -21.0038
rfingers 7.12502
rthumb 24.06 -409.516
lclavicle 6.9674e-014 2.62396e-014
lhumerus 333.354 -21.3908 -266.397
lradius 75.0683
lwrist -143.042
lhand -29.0898 13.5395
lfingers 7.12502
lthumb -2.4384 43.5053
rfemur -19.9321 -19.3953 36.0244
rtibia 49.2744
rfoot -18.6263 -13.0832
rtoes 14.9931
lfemur 19.2361 4.63736 -14.0098
ltibia 23.0255
lfoot -27.1211 2.0449
ltoes -15.5035
25
root -3.43483 16.7991 5.88656 173.449 9.59111 -171.725
lowerback 8.79819 -6.12883 3.79055
upperback 5.5922 -7.06191 4.98549
thorax 1.08656 -3.16841 3.60942
lowerneck -8.96883 -0.231582 2.74191
upperneck -9.41061 0.186328 -0.0967459
head -1.44136 0.306984 -0.486537
rclavicle -5.92378e-014 3.89618e-014
rhumerus -50.1191 -1.6242 -78.05
rradius 69.611
rwrist -264.332
rhand -1.86215 -21.4097
rfingers 7.12502
rthumb 23.8056 -409.955
lclavicle -5.92378e-014 3.89618e-014
lhumerus 333.867 -21.3015 -266.764
lradius 76.0409
lwrist -143.291
lhand -29.0259 13.0132
lfingers 7.12502
lthumb -2.3767 42.9797
rfemur -20.6601 -19.4728 35.9521
rtibia 50.0112
rfoot -17.7595 -12.6896
rtoes 15.3593
lfemur 18.9933 4.98399 -13.9794
ltibia 23.072
lfoot -27.3591 1.7252
ltoes -14.5133
26
root -3.44691 16.7897 5.97787 173.292 9.7165 -171.774
lowerback 9.28704 -6.01017 3.68736
upperback 5.71555 -6.86267 4.90519
thorax 0.943399 -3.06304 3.60993
lowerneck -9.02302 -0.417751 2.5018
upperneck -9.59793 -0.00322571 0.240992
head -1.49377 0.224732 -0.345026
rclavicle -3.67752e-015 -1.03368e-014
rhumerus -50.0363 -1.40814 -78.3603
rradius 70.9122
rwrist -263.238
rhand -2.19137 -21.883
rfingers 7.12502
rthumb 23.4898 -410.469
lclavicle -3.67752e-015 -1.03368e-014
lhumerus 334.362 -21.1739 -267.141
lradius 76.9695
lwrist -143.532
lhand -28.9578 12.6657
lfingers 7.12502
lthumb -2.31091 42.6329
rfemur -21.3016 -19.5801 35.8923
rtibia 50.7259
rfoot -16.8366 -12.3071
rtoes 15.6931
lfemur 18.8174 5.10976 -14.003
ltibia 23.1564
lfoot -27.5728 1.56722
ltoes -13.646
27
root -3.46016 16.7805 6.0654 173.091 9.90739 -171.863
lowerback 9.76337 -5.86358 3.57963
upperback 5.87348 -6.62648 4.82366
thorax 0.842674 -2.93696 3.60321
lowerneck -9.08807 -0.627049 2.19006
upperneck -9.80211 -0.214336 0.591432
head -1.54878 0.134892 -0.188234
rclavicle -8.79622e-014 4.13472e-014
rhumerus -49.8741 -1.13972 -78.6439
rradius 72.2102
rwrist -262.006
rhand -2.5128 -22.3415
rfingers 7.12502
rthumb 23.1815 -410.967
lclavicle -8.79622e-014 4.13472e-014
lhumerus 334.927 -21.0505 -267.509
lradius 77.7773
lwrist -143.859
lhand -28.8514 12.5134
lfingers 7.12502
lthumb -2.20815 42.4817
rfemur -21.8796 -19.6974 35.7673
rtibia 51.4183
rfoot -15.791 -11.8696
rtoes 15.6871
lfemur 18.6827 5.02604 -14.1896
ltibia 23.3041
lfoot -27.8033 1.5395
ltoes -12.1835
